<?xml version="1.0" encoding="UTF-8" standalone="yes"?><svg xmlns="http://www.w3.org/2000/svg" xmlns:xlink="http://www.w3.org/1999/xlink" height="296px" style="width:560px;height:296px;" version="1.1" viewBox="0 0 560 296" width="560px"><defs/><g><polygon fill="#F8F8F8" points="448.5,132.5,458.5,122.5,559.5,122.5,559.5,158.7969,549.5,168.7969,448.5,168.7969,448.5,132.5" style="stroke: #000000; stroke-width: 1.5;"/><line style="stroke: #000000; stroke-width: 1.5;" x1="549.5" x2="558.5" y1="132.5" y2="123.5"/><line style="stroke: #000000; stroke-width: 1.5;" x1="448.5" x2="549.5" y1="132.5" y2="132.5"/><line style="stroke: #000000; stroke-width: 1.5;" x1="549.5" x2="549.5" y1="132.5" y2="168.7969"/><text fill="#000000" font-family="sans-serif" font-size="14" lengthAdjust="spacingAndGlyphs" text-decoration="underline" textLength="71" x="463.5" y="155.4951">:Aquisição</text><line style="stroke: #000000; stroke-width: 1.0;" x1="463.5" x2="534.5" y1="157.4951" y2="157.4951"/><polygon fill="#F8F8F8" points="7.5,259,17.5,249,132.5,249,132.5,285.2969,122.5,295.2969,7.5,295.2969,7.5,259" style="stroke: #000000; stroke-width: 1.5;"/><line style="stroke: #000000; stroke-width: 1.5;" x1="122.5" x2="131.5" y1="259" y2="250"/><line style="stroke: #000000; stroke-width: 1.5;" x1="7.5" x2="122.5" y1="259" y2="259"/><line style="stroke: #000000; stroke-width: 1.5;" x1="122.5" x2="122.5" y1="259" y2="295.2969"/><text fill="#000000" font-family="sans-serif" font-size="14" lengthAdjust="spacingAndGlyphs" text-decoration="underline" textLength="85" x="22.5" y="281.9951">:Fornecedor</text><line style="stroke: #000000; stroke-width: 1.0;" x1="22.5" x2="107.5" y1="283.9951" y2="283.9951"/><rect fill="#F8F8F8" height="52.5938" style="stroke: #383838; stroke-width: 1.5;" width="128" x="6" y="119"/><rect fill="#F8F8F8" height="5" style="stroke: #383838; stroke-width: 1.5;" width="10" x="1" y="124"/><rect fill="#F8F8F8" height="5" style="stroke: #383838; stroke-width: 1.5;" width="10" x="1" y="161.5938"/><text fill="#000000" font-family="sans-serif" font-size="14" lengthAdjust="spacingAndGlyphs" text-decoration="underline" textLength="108" x="16" y="141.9951">:Controlador de</text><line style="stroke: #000000; stroke-width: 1.0;" x1="16" x2="124" y1="143.9951" y2="143.9951"/><text fill="#000000" font-family="sans-serif" font-size="14" lengthAdjust="spacingAndGlyphs" text-decoration="underline" textLength="97" x="23.5" y="158.292">Fornecedores</text><line style="stroke: #000000; stroke-width: 1.0;" x1="23.5" x2="120.5" y1="160.292" y2="160.292"/><ellipse cx="70" cy="17" fill="#F8F8F8" rx="8" ry="8" style="stroke: #383838; stroke-width: 2.0;"/><text fill="#000000" font-family="sans-serif" font-size="14" lengthAdjust="spacingAndGlyphs" textLength="51" x="44.5" y="38.9951">System</text><path d="M70,42.477 C70,60.805 70,90.826 70,113.568 " fill="none" style="stroke: #383838; stroke-width: 1.0;"/><polygon fill="#383838" points="70,118.595,74,109.595,70,113.595,66,109.595,70,118.595" style="stroke: #383838; stroke-width: 1.0;"/><text fill="#000000" font-family="sans-serif" font-size="13" lengthAdjust="spacingAndGlyphs" textLength="192" x="71" y="85.0669">excluirFornecedor(fornecedor)</text><path d="M134.038,145.5 C217.214,145.5 361.394,145.5 443.034,145.5 " fill="none" style="stroke: #383838; stroke-width: 1.0;"/><polygon fill="#383838" points="448.32,145.5,439.32,141.5,443.32,145.5,439.32,149.5,448.32,145.5" style="stroke: #383838; stroke-width: 1.0;"/><text fill="#000000" font-family="sans-serif" font-size="13" lengthAdjust="spacingAndGlyphs" textLength="278" x="152.25" y="138.5669">1.a:=consultaAquisição(codigo_fornecedor)</text><path d="M70,172.296 C70,193.176 70,222.5045 70,243.7613 " fill="none" style="stroke: #383838; stroke-width: 1.0;"/><polygon fill="#383838" points="70,248.9816,74,239.9816,70,243.9816,66,239.9816,70,248.9816" style="stroke: #383838; stroke-width: 1.0;"/><text fill="#000000" font-family="sans-serif" font-size="13" lengthAdjust="spacingAndGlyphs" textLength="206" x="71" y="215.0669">2.[a == null] excluir(fornecedor)</text></g></svg>