<?xml version="1.0" encoding="UTF-8" standalone="yes"?><svg xmlns="http://www.w3.org/2000/svg" xmlns:xlink="http://www.w3.org/1999/xlink" height="296px" style="width:643px;height:296px;" version="1.1" viewBox="0 0 643 296" width="643px"><defs/><g><polygon fill="#F8F8F8" points="312,259,322,249,404,249,404,285.2969,394,295.2969,312,295.2969,312,259" style="stroke: #000000; stroke-width: 1.5;"/><line style="stroke: #000000; stroke-width: 1.5;" x1="394" x2="403" y1="259" y2="250"/><line style="stroke: #000000; stroke-width: 1.5;" x1="312" x2="394" y1="259" y2="259"/><line style="stroke: #000000; stroke-width: 1.5;" x1="394" x2="394" y1="259" y2="295.2969"/><text fill="#000000" font-family="sans-serif" font-size="14" lengthAdjust="spacingAndGlyphs" text-decoration="underline" textLength="52" x="327" y="281.9951">:Acervo</text><line style="stroke: #000000; stroke-width: 1.0;" x1="327" x2="379" y1="283.9951" y2="283.9951"/><rect fill="#F8F8F8" height="52.5938" style="stroke: #383838; stroke-width: 1.5;" width="106" x="6" y="119"/><rect fill="#F8F8F8" height="5" style="stroke: #383838; stroke-width: 1.5;" width="10" x="1" y="124"/><rect fill="#F8F8F8" height="5" style="stroke: #383838; stroke-width: 1.5;" width="10" x="1" y="161.5938"/><text fill="#000000" font-family="sans-serif" font-size="14" lengthAdjust="spacingAndGlyphs" text-decoration="underline" textLength="86" x="16" y="141.9951">:Controlador</text><line style="stroke: #000000; stroke-width: 1.0;" x1="16" x2="102" y1="143.9951" y2="143.9951"/><text fill="#000000" font-family="sans-serif" font-size="14" lengthAdjust="spacingAndGlyphs" text-decoration="underline" textLength="53" x="32.5" y="158.292">de Livro</text><line style="stroke: #000000; stroke-width: 1.0;" x1="32.5" x2="85.5" y1="160.292" y2="160.292"/><rect fill="#F8F8F8" height="52.5938" style="stroke: #383838; stroke-width: 1.5;" width="110" x="303" y="119"/><rect fill="#F8F8F8" height="5" style="stroke: #383838; stroke-width: 1.5;" width="10" x="298" y="124"/><rect fill="#F8F8F8" height="5" style="stroke: #383838; stroke-width: 1.5;" width="10" x="298" y="161.5938"/><text fill="#000000" font-family="sans-serif" font-size="14" lengthAdjust="spacingAndGlyphs" text-decoration="underline" textLength="90" x="313" y="141.9951">:Gerenciador</text><line style="stroke: #000000; stroke-width: 1.0;" x1="313" x2="403" y1="143.9951" y2="143.9951"/><text fill="#000000" font-family="sans-serif" font-size="14" lengthAdjust="spacingAndGlyphs" text-decoration="underline" textLength="53" x="331.5" y="158.292">de Livro</text><line style="stroke: #000000; stroke-width: 1.0;" x1="331.5" x2="384.5" y1="160.292" y2="160.292"/><rect fill="#F8F8F8" height="36.2969" style="stroke: #383838; stroke-width: 1.5;" width="56" x="586" y="127.5"/><rect fill="#F8F8F8" height="5" style="stroke: #383838; stroke-width: 1.5;" width="10" x="581" y="132.5"/><rect fill="#F8F8F8" height="5" style="stroke: #383838; stroke-width: 1.5;" width="10" x="581" y="153.7969"/><text fill="#000000" font-family="sans-serif" font-size="14" lengthAdjust="spacingAndGlyphs" text-decoration="underline" textLength="36" x="596" y="150.4951">:Livro</text><line style="stroke: #000000; stroke-width: 1.0;" x1="596" x2="632" y1="152.4951" y2="152.4951"/><ellipse cx="59" cy="17" fill="#F8F8F8" rx="8" ry="8" style="stroke: #383838; stroke-width: 2.0;"/><text fill="#000000" font-family="sans-serif" font-size="14" lengthAdjust="spacingAndGlyphs" textLength="51" x="33.5" y="38.9951">System</text><path d="M59,42.477 C59,60.805 59,90.826 59,113.568 " fill="none" style="stroke: #383838; stroke-width: 1.0;"/><polygon fill="#383838" points="59,118.595,63,109.595,59,113.595,55,109.595,59,118.595" style="stroke: #383838; stroke-width: 1.0;"/><text fill="#000000" font-family="sans-serif" font-size="13" lengthAdjust="spacingAndGlyphs" textLength="120" x="60" y="85.0669">inserirLivro(Dados)</text><path d="M112.111,145.5 C164.133,145.5 243.301,145.5 297.671,145.5 " fill="none" style="stroke: #383838; stroke-width: 1.0;"/><polygon fill="#383838" points="302.854,145.5,293.854,141.5,297.854,145.5,293.854,149.5,302.854,145.5" style="stroke: #383838; stroke-width: 1.0;"/><text fill="#000000" font-family="sans-serif" font-size="13" lengthAdjust="spacingAndGlyphs" textLength="154" x="130.5" y="138.5669">1.cadastrarLivro(Dados)</text><path d="M413.233,145.5 C464.222,145.5 538.281,145.5 580.741,145.5 " fill="none" style="stroke: #383838; stroke-width: 1.0;"/><polygon fill="#383838" points="585.758,145.5,576.758,141.5,580.758,145.5,576.758,149.5,585.758,145.5" style="stroke: #383838; stroke-width: 1.0;"/><text fill="#000000" font-family="sans-serif" font-size="13" lengthAdjust="spacingAndGlyphs" textLength="136" x="431.5" y="138.5669">2.Livro:=criar(Dados)</text><path d="M358,172.296 C358,193.176 358,222.5045 358,243.7613 " fill="none" style="stroke: #383838; stroke-width: 1.0;"/><polygon fill="#383838" points="358,248.9816,362,239.9816,358,243.9816,354,239.9816,358,248.9816" style="stroke: #383838; stroke-width: 1.0;"/><text fill="#000000" font-family="sans-serif" font-size="13" lengthAdjust="spacingAndGlyphs" textLength="140" x="359" y="215.0669">3.adicionarLivro(Livro)</text></g></svg>