<?xml version="1.0" encoding="UTF-8" standalone="yes"?><svg xmlns="http://www.w3.org/2000/svg" xmlns:xlink="http://www.w3.org/1999/xlink" height="172px" style="width:525px;height:172px;" version="1.1" viewBox="0 0 525 172" width="525px"><defs/><g><polygon fill="#F8F8F8" points="427.5,132.5,437.5,122.5,524.5,122.5,524.5,158.7969,514.5,168.7969,427.5,168.7969,427.5,132.5" style="stroke: #000000; stroke-width: 1.5;"/><line style="stroke: #000000; stroke-width: 1.5;" x1="514.5" x2="523.5" y1="132.5" y2="123.5"/><line style="stroke: #000000; stroke-width: 1.5;" x1="427.5" x2="514.5" y1="132.5" y2="132.5"/><line style="stroke: #000000; stroke-width: 1.5;" x1="514.5" x2="514.5" y1="132.5" y2="168.7969"/><text fill="#000000" font-family="sans-serif" font-size="14" lengthAdjust="spacingAndGlyphs" text-decoration="underline" textLength="57" x="442.5" y="155.4951">:Usu치rio</text><line style="stroke: #000000; stroke-width: 1.0;" x1="442.5" x2="499.5" y1="157.4951" y2="157.4951"/><rect fill="#F8F8F8" height="52.5938" style="stroke: #383838; stroke-width: 1.5;" width="128" x="6" y="119"/><rect fill="#F8F8F8" height="5" style="stroke: #383838; stroke-width: 1.5;" width="10" x="1" y="124"/><rect fill="#F8F8F8" height="5" style="stroke: #383838; stroke-width: 1.5;" width="10" x="1" y="161.5938"/><text fill="#000000" font-family="sans-serif" font-size="14" lengthAdjust="spacingAndGlyphs" text-decoration="underline" textLength="108" x="16" y="141.9951">:Controlador de</text><line style="stroke: #000000; stroke-width: 1.0;" x1="16" x2="124" y1="143.9951" y2="143.9951"/><text fill="#000000" font-family="sans-serif" font-size="14" lengthAdjust="spacingAndGlyphs" text-decoration="underline" textLength="52" x="46" y="158.292">Usu치rio</text><line style="stroke: #000000; stroke-width: 1.0;" x1="46" x2="98" y1="160.292" y2="160.292"/><ellipse cx="70" cy="17" fill="#F8F8F8" rx="8" ry="8" style="stroke: #383838; stroke-width: 2.0;"/><text fill="#000000" font-family="sans-serif" font-size="14" lengthAdjust="spacingAndGlyphs" textLength="51" x="44.5" y="38.9951">System</text><path d="M70,42.477 C70,60.805 70,90.8259 70,113.5684 " fill="none" style="stroke: #383838; stroke-width: 1.0;"/><polygon fill="#383838" points="70,118.5954,74,109.5954,70,113.5954,66,109.5954,70,118.5954" style="stroke: #383838; stroke-width: 1.0;"/><text fill="#000000" font-family="sans-serif" font-size="13" lengthAdjust="spacingAndGlyphs" textLength="234" x="71" y="85.0669">Usr:=buscarUsu치rio(codigo_RG_CIC)</text><path d="M134.332,145.5 C213.813,145.5 347.621,145.5 422.009,145.5 " fill="none" style="stroke: #383838; stroke-width: 1.0;"/><polygon fill="#383838" points="427.26,145.5,418.26,141.5,422.26,145.5,418.26,149.5,427.26,145.5" style="stroke: #383838; stroke-width: 1.0;"/><text fill="#000000" font-family="sans-serif" font-size="13" lengthAdjust="spacingAndGlyphs" textLength="257" x="152.25" y="138.5669">1.Usr:=consultaUsu치rio(codigo_RG_CIC)</text></g></svg>