<?xml version="1.0" encoding="UTF-8" standalone="yes"?><svg xmlns="http://www.w3.org/2000/svg" xmlns:xlink="http://www.w3.org/1999/xlink" height="1208px" style="width:1191px;height:1208px;" version="1.1" viewBox="0 0 1191 1208" width="1191px"><defs><filter height="300%" id="f1" width="300%" x="-1" y="-1"><feGaussianBlur result="blurOut" stdDeviation="2.0"/><feColorMatrix in="blurOut" result="blurOut2" type="matrix" values="0 0 0 0 0 0 0 0 0 0 0 0 0 0 0 0 0 0 .4 0"/><feOffset dx="4.0" dy="4.0" in="blurOut2" result="blurOut3"/><feBlend in="SourceGraphic" in2="blurOut3" mode="normal"/></filter></defs><g><rect fill="#FEFECE" filter="url(#f1)" height="72.5313" style="stroke: #A80036; stroke-width: 1.5;" width="117" x="57" y="764"/><text fill="#000000" font-family="sans-serif" font-size="12" lengthAdjust="spacingAndGlyphs" textLength="60" x="85.5" y="777.1387">Aquisicao</text><line style="stroke: #A80036; stroke-width: 1.5;" x1="58" x2="173" y1="781.9688" y2="781.9688"/><text fill="#000000" font-family="sans-serif" font-size="10" lengthAdjust="spacingAndGlyphs" textLength="105" x="63" y="795.251">numero_registro_livro</text><text fill="#000000" font-family="sans-serif" font-size="10" lengthAdjust="spacingAndGlyphs" textLength="89" x="63" y="806.8916">codigo_fornecedor</text><text fill="#000000" font-family="sans-serif" font-size="10" lengthAdjust="spacingAndGlyphs" textLength="27" x="63" y="818.5322">preco</text><text fill="#000000" font-family="sans-serif" font-size="10" lengthAdjust="spacingAndGlyphs" textLength="49" x="63" y="830.1729">data_hora</text><rect fill="#FEFECE" filter="url(#f1)" height="142.375" style="stroke: #A80036; stroke-width: 1.5;" width="117" x="387" y="943"/><text fill="#000000" font-family="sans-serif" font-size="12" lengthAdjust="spacingAndGlyphs" textLength="28" x="431.5" y="956.1387">Livro</text><line style="stroke: #A80036; stroke-width: 1.5;" x1="388" x2="503" y1="960.9688" y2="960.9688"/><text fill="#000000" font-family="sans-serif" font-size="10" lengthAdjust="spacingAndGlyphs" textLength="24" x="393" y="974.251">titulo</text><text fill="#000000" font-family="sans-serif" font-size="10" lengthAdjust="spacingAndGlyphs" textLength="26" x="393" y="985.8916">autor</text><text fill="#000000" font-family="sans-serif" font-size="10" lengthAdjust="spacingAndGlyphs" textLength="105" x="393" y="997.5322">numero_registro_livro</text><text fill="#000000" font-family="sans-serif" font-size="10" lengthAdjust="spacingAndGlyphs" textLength="34" x="393" y="1009.1729">editora</text><text fill="#000000" font-family="sans-serif" font-size="10" lengthAdjust="spacingAndGlyphs" textLength="36" x="393" y="1020.8135">volume</text><text fill="#000000" font-family="sans-serif" font-size="10" lengthAdjust="spacingAndGlyphs" textLength="80" x="393" y="1032.4541">numero_paginas</text><text fill="#000000" font-family="sans-serif" font-size="10" lengthAdjust="spacingAndGlyphs" textLength="74" x="393" y="1044.0947">numero_edicao</text><text fill="#000000" font-family="sans-serif" font-size="10" lengthAdjust="spacingAndGlyphs" textLength="18" x="393" y="1055.7354">ano</text><text fill="#000000" font-family="sans-serif" font-size="10" lengthAdjust="spacingAndGlyphs" textLength="93" x="393" y="1067.376">local_de_publicacao</text><text fill="#000000" font-family="sans-serif" font-size="10" lengthAdjust="spacingAndGlyphs" textLength="56" x="393" y="1079.0166">codigo_livro</text><rect fill="#FEFECE" filter="url(#f1)" height="107.4531" style="stroke: #A80036; stroke-width: 1.5;" width="126" x="50.5" y="539"/><text fill="#000000" font-family="sans-serif" font-size="12" lengthAdjust="spacingAndGlyphs" textLength="72" x="77.5" y="552.1387">Fornecedor</text><line style="stroke: #A80036; stroke-width: 1.5;" x1="51.5" x2="175.5" y1="556.9688" y2="556.9688"/><text fill="#000000" font-family="sans-serif" font-size="10" lengthAdjust="spacingAndGlyphs" textLength="28" x="56.5" y="570.251">nome</text><text fill="#000000" font-family="sans-serif" font-size="10" lengthAdjust="spacingAndGlyphs" textLength="58" x="56.5" y="581.8916">razao_social</text><text fill="#000000" font-family="sans-serif" font-size="10" lengthAdjust="spacingAndGlyphs" textLength="45" x="56.5" y="593.5322">endereco</text><text fill="#000000" font-family="sans-serif" font-size="10" lengthAdjust="spacingAndGlyphs" textLength="40" x="56.5" y="605.1729">telefone</text><text fill="#000000" font-family="sans-serif" font-size="10" lengthAdjust="spacingAndGlyphs" textLength="102" x="56.5" y="616.8135">nome_representante</text><text fill="#000000" font-family="sans-serif" font-size="10" lengthAdjust="spacingAndGlyphs" textLength="114" x="56.5" y="628.4541">telefone_representante</text><text fill="#000000" font-family="sans-serif" font-size="10" lengthAdjust="spacingAndGlyphs" textLength="89" x="56.5" y="640.0947">codigo_fornecedor</text><rect fill="#FEFECE" filter="url(#f1)" height="37.6094" style="stroke: #A80036; stroke-width: 1.5;" width="48" x="326.5" y="1162"/><text fill="#000000" font-family="sans-serif" font-size="12" lengthAdjust="spacingAndGlyphs" textLength="34" x="333.5" y="1175.1387">Autor</text><line style="stroke: #A80036; stroke-width: 1.5;" x1="327.5" x2="373.5" y1="1179.9688" y2="1179.9688"/><text fill="#000000" font-family="sans-serif" font-size="10" lengthAdjust="spacingAndGlyphs" textLength="28" x="332.5" y="1193.251">nome</text><rect fill="#FEFECE" filter="url(#f1)" height="107.4531" style="stroke: #A80036; stroke-width: 1.5;" width="125" x="428" y="124"/><text fill="#000000" font-family="sans-serif" font-size="12" lengthAdjust="spacingAndGlyphs" textLength="65" x="458" y="137.1387">Devolucao</text><line style="stroke: #A80036; stroke-width: 1.5;" x1="429" x2="552" y1="141.9688" y2="141.9688"/><text fill="#000000" font-family="sans-serif" font-size="10" lengthAdjust="spacingAndGlyphs" textLength="71" x="434" y="155.251">codigo_usuario</text><text fill="#000000" font-family="sans-serif" font-size="10" lengthAdjust="spacingAndGlyphs" textLength="89" x="434" y="166.8916">codigo_funcionario</text><text fill="#000000" font-family="sans-serif" font-size="10" lengthAdjust="spacingAndGlyphs" textLength="100" x="434" y="178.5322">numero_regitro_livro</text><text fill="#000000" font-family="sans-serif" font-size="10" lengthAdjust="spacingAndGlyphs" textLength="78" x="434" y="190.1729">data_hora_atual</text><text fill="#000000" font-family="sans-serif" font-size="10" lengthAdjust="spacingAndGlyphs" textLength="113" x="434" y="201.8135">data_hora_emprestimo</text><text fill="#000000" font-family="sans-serif" font-size="10" lengthAdjust="spacingAndGlyphs" textLength="28" x="434" y="213.4541">multa</text><text fill="#000000" font-family="sans-serif" font-size="10" lengthAdjust="spacingAndGlyphs" textLength="99" x="434" y="225.0947">numero_renovacoes</text><rect fill="#FEFECE" filter="url(#f1)" height="130.7344" style="stroke: #A80036; stroke-width: 1.5;" width="83" x="616" y="735"/><text fill="#000000" font-family="sans-serif" font-size="12" lengthAdjust="spacingAndGlyphs" textLength="48" x="633.5" y="748.1387">Usuario</text><line style="stroke: #A80036; stroke-width: 1.5;" x1="617" x2="698" y1="752.9688" y2="752.9688"/><text fill="#000000" font-family="sans-serif" font-size="10" lengthAdjust="spacingAndGlyphs" textLength="28" x="622" y="766.251">nome</text><text fill="#000000" font-family="sans-serif" font-size="10" lengthAdjust="spacingAndGlyphs" textLength="55" x="622" y="777.8916">sobrenome</text><text fill="#000000" font-family="sans-serif" font-size="10" lengthAdjust="spacingAndGlyphs" textLength="15" x="622" y="789.5322">RC</text><text fill="#000000" font-family="sans-serif" font-size="10" lengthAdjust="spacingAndGlyphs" textLength="19" x="622" y="801.1729">CIC</text><text fill="#000000" font-family="sans-serif" font-size="10" lengthAdjust="spacingAndGlyphs" textLength="40" x="622" y="812.8135">telefone</text><text fill="#000000" font-family="sans-serif" font-size="10" lengthAdjust="spacingAndGlyphs" textLength="45" x="622" y="824.4541">endereco</text><text fill="#000000" font-family="sans-serif" font-size="10" lengthAdjust="spacingAndGlyphs" textLength="23" x="622" y="836.0947">sexo</text><text fill="#000000" font-family="sans-serif" font-size="10" lengthAdjust="spacingAndGlyphs" textLength="44" x="622" y="847.7354">profissao</text><text fill="#000000" font-family="sans-serif" font-size="10" lengthAdjust="spacingAndGlyphs" textLength="71" x="622" y="859.376">codigo_usuario</text><rect fill="#FEFECE" filter="url(#f1)" height="142.375" style="stroke: #A80036; stroke-width: 1.5;" width="118" x="652.5" y="308"/><text fill="#000000" font-family="sans-serif" font-size="12" lengthAdjust="spacingAndGlyphs" textLength="73" x="675" y="321.1387">Funcionario</text><line style="stroke: #A80036; stroke-width: 1.5;" x1="653.5" x2="769.5" y1="325.9688" y2="325.9688"/><text fill="#000000" font-family="sans-serif" font-size="10" lengthAdjust="spacingAndGlyphs" textLength="28" x="658.5" y="339.251">nome</text><text fill="#000000" font-family="sans-serif" font-size="10" lengthAdjust="spacingAndGlyphs" textLength="55" x="658.5" y="350.8916">sobrenome</text><text fill="#000000" font-family="sans-serif" font-size="10" lengthAdjust="spacingAndGlyphs" textLength="15" x="658.5" y="362.5322">RG</text><text fill="#000000" font-family="sans-serif" font-size="10" lengthAdjust="spacingAndGlyphs" textLength="19" x="658.5" y="374.1729">CIC</text><text fill="#000000" font-family="sans-serif" font-size="10" lengthAdjust="spacingAndGlyphs" textLength="31" x="658.5" y="385.8135">salario</text><text fill="#000000" font-family="sans-serif" font-size="10" lengthAdjust="spacingAndGlyphs" textLength="45" x="658.5" y="397.4541">endereco</text><text fill="#000000" font-family="sans-serif" font-size="10" lengthAdjust="spacingAndGlyphs" textLength="23" x="658.5" y="409.0947">sexo</text><text fill="#000000" font-family="sans-serif" font-size="10" lengthAdjust="spacingAndGlyphs" textLength="106" x="658.5" y="420.7354">formacao_profissional</text><text fill="#000000" font-family="sans-serif" font-size="10" lengthAdjust="spacingAndGlyphs" textLength="86" x="658.5" y="432.376">codigo_supervisor</text><text fill="#000000" font-family="sans-serif" font-size="10" lengthAdjust="spacingAndGlyphs" textLength="89" x="658.5" y="444.0166">codigo_funcionario</text><rect fill="#FEFECE" filter="url(#f1)" height="72.5313" style="stroke: #A80036; stroke-width: 1.5;" width="117" x="1043" y="764"/><text fill="#000000" font-family="sans-serif" font-size="12" lengthAdjust="spacingAndGlyphs" textLength="48" x="1077.5" y="777.1387">Doacao</text><line style="stroke: #A80036; stroke-width: 1.5;" x1="1044" x2="1159" y1="781.9688" y2="781.9688"/><text fill="#000000" font-family="sans-serif" font-size="10" lengthAdjust="spacingAndGlyphs" textLength="70" x="1049" y="795.251">codigo_doador</text><text fill="#000000" font-family="sans-serif" font-size="10" lengthAdjust="spacingAndGlyphs" textLength="105" x="1049" y="806.8916">numero_registro_livro</text><text fill="#000000" font-family="sans-serif" font-size="10" lengthAdjust="spacingAndGlyphs" textLength="49" x="1049" y="818.5322">data_hora</text><text fill="#000000" font-family="sans-serif" font-size="10" lengthAdjust="spacingAndGlyphs" textLength="33" x="1049" y="830.1729">estado</text><rect fill="#FEFECE" filter="url(#f1)" height="130.7344" style="stroke: #A80036; stroke-width: 1.5;" width="60" x="1122.5" y="527"/><text fill="#000000" font-family="sans-serif" font-size="12" lengthAdjust="spacingAndGlyphs" textLength="46" x="1129.5" y="540.1387">Doador</text><line style="stroke: #A80036; stroke-width: 1.5;" x1="1123.5" x2="1181.5" y1="544.9688" y2="544.9688"/><text fill="#000000" font-family="sans-serif" font-size="10" lengthAdjust="spacingAndGlyphs" textLength="31" x="1128.5" y="558.251">codigo</text><text fill="#000000" font-family="sans-serif" font-size="10" lengthAdjust="spacingAndGlyphs" textLength="15" x="1128.5" y="569.8916">RG</text><text fill="#000000" font-family="sans-serif" font-size="10" lengthAdjust="spacingAndGlyphs" textLength="19" x="1128.5" y="581.5322">CIC</text><text fill="#000000" font-family="sans-serif" font-size="10" lengthAdjust="spacingAndGlyphs" textLength="28" x="1128.5" y="593.1729">nome</text><text fill="#000000" font-family="sans-serif" font-size="10" lengthAdjust="spacingAndGlyphs" textLength="45" x="1128.5" y="604.8135">endereco</text><text fill="#000000" font-family="sans-serif" font-size="10" lengthAdjust="spacingAndGlyphs" textLength="26" x="1128.5" y="616.4541">idade</text><text fill="#000000" font-family="sans-serif" font-size="10" lengthAdjust="spacingAndGlyphs" textLength="23" x="1128.5" y="628.0947">sexo</text><text fill="#000000" font-family="sans-serif" font-size="10" lengthAdjust="spacingAndGlyphs" textLength="40" x="1128.5" y="639.7354">telefone</text><text fill="#000000" font-family="sans-serif" font-size="10" lengthAdjust="spacingAndGlyphs" textLength="44" x="1128.5" y="651.376">profissao</text><rect fill="#FEFECE" filter="url(#f1)" height="37.6094" style="stroke: #A80036; stroke-width: 1.5;" width="59" x="416" y="1162"/><text fill="#000000" font-family="sans-serif" font-size="12" lengthAdjust="spacingAndGlyphs" textLength="45" x="423" y="1175.1387">Editora</text><line style="stroke: #A80036; stroke-width: 1.5;" x1="417" x2="474" y1="1179.9688" y2="1179.9688"/><text fill="#000000" font-family="sans-serif" font-size="10" lengthAdjust="spacingAndGlyphs" textLength="28" x="422" y="1193.251">nome</text><rect fill="#FEFECE" filter="url(#f1)" height="107.4531" style="stroke: #A80036; stroke-width: 1.5;" width="125" x="383" y="539"/><text fill="#000000" font-family="sans-serif" font-size="12" lengthAdjust="spacingAndGlyphs" textLength="74" x="408.5" y="552.1387">Emprestimo</text><line style="stroke: #A80036; stroke-width: 1.5;" x1="384" x2="507" y1="556.9688" y2="556.9688"/><text fill="#000000" font-family="sans-serif" font-size="10" lengthAdjust="spacingAndGlyphs" textLength="71" x="389" y="570.251">codigo_usuario</text><text fill="#000000" font-family="sans-serif" font-size="10" lengthAdjust="spacingAndGlyphs" textLength="105" x="389" y="581.8916">numero_registro_livro</text><text fill="#000000" font-family="sans-serif" font-size="10" lengthAdjust="spacingAndGlyphs" textLength="89" x="389" y="593.5322">codigo_funcionario</text><text fill="#000000" font-family="sans-serif" font-size="10" lengthAdjust="spacingAndGlyphs" textLength="113" x="389" y="605.1729">data_hora_emprestimo</text><text fill="#000000" font-family="sans-serif" font-size="10" lengthAdjust="spacingAndGlyphs" textLength="103" x="389" y="616.8135">data_hora_devolucao</text><text fill="#000000" font-family="sans-serif" font-size="10" lengthAdjust="spacingAndGlyphs" textLength="30" x="389" y="628.4541">status</text><text fill="#000000" font-family="sans-serif" font-size="10" lengthAdjust="spacingAndGlyphs" textLength="51" x="389" y="640.0947">renovacao</text><rect fill="#FEFECE" filter="url(#f1)" height="33.9688" style="stroke: #A80036; stroke-width: 1.5;" width="80" x="614.5" y="575.5"/><text fill="#000000" font-family="sans-serif" font-size="12" lengthAdjust="spacingAndGlyphs" textLength="66" x="621.5" y="588.6387">Supervisor</text><line style="stroke: #A80036; stroke-width: 1.5;" x1="615.5" x2="693.5" y1="593.4688" y2="593.4688"/><rect fill="#FEFECE" filter="url(#f1)" height="33.9688" style="stroke: #A80036; stroke-width: 1.5;" width="84" x="8.5" y="160.5"/><text fill="#000000" font-family="sans-serif" font-size="12" lengthAdjust="spacingAndGlyphs" textLength="70" x="15.5" y="173.6387">Impressora</text><line style="stroke: #A80036; stroke-width: 1.5;" x1="9.5" x2="91.5" y1="178.4688" y2="178.4688"/><rect fill="#FEFECE" filter="url(#f1)" height="37.6094" style="stroke: #A80036; stroke-width: 1.5;" width="142" x="510.5" y="1162"/><text fill="#000000" font-family="sans-serif" font-size="12" lengthAdjust="spacingAndGlyphs" textLength="128" x="517.5" y="1175.1387">Local_de_publicacao</text><line style="stroke: #A80036; stroke-width: 1.5;" x1="511.5" x2="651.5" y1="1179.9688" y2="1179.9688"/><text fill="#000000" font-family="sans-serif" font-size="10" lengthAdjust="spacingAndGlyphs" textLength="45" x="516.5" y="1193.251">endereco</text><rect fill="#FEFECE" filter="url(#f1)" height="37.6094" style="stroke: #A80036; stroke-width: 1.5;" width="72" x="268.5" y="16.5"/><text fill="#000000" font-family="sans-serif" font-size="12" lengthAdjust="spacingAndGlyphs" textLength="56" x="276.5" y="29.6387">Relatorio</text><line style="stroke: #A80036; stroke-width: 1.5;" x1="269.5" x2="339.5" y1="34.4688" y2="34.4688"/><text fill="#000000" font-family="sans-serif" font-size="10" lengthAdjust="spacingAndGlyphs" textLength="60" x="274.5" y="47.751">informacoes</text><rect fill="#FEFECE" filter="url(#f1)" height="95.8125" style="stroke: #A80036; stroke-width: 1.5;" width="103" x="731" y="129.5"/><text fill="#000000" font-family="sans-serif" font-size="12" lengthAdjust="spacingAndGlyphs" textLength="50" x="757.5" y="142.6387">Reserva</text><line style="stroke: #A80036; stroke-width: 1.5;" x1="732" x2="833" y1="147.4688" y2="147.4688"/><text fill="#000000" font-family="sans-serif" font-size="10" lengthAdjust="spacingAndGlyphs" textLength="56" x="737" y="160.751">codigo_livro</text><text fill="#000000" font-family="sans-serif" font-size="10" lengthAdjust="spacingAndGlyphs" textLength="71" x="737" y="172.3916">codigo_usuario</text><text fill="#000000" font-family="sans-serif" font-size="10" lengthAdjust="spacingAndGlyphs" textLength="89" x="737" y="184.0322">codigo_funcionario</text><text fill="#000000" font-family="sans-serif" font-size="10" lengthAdjust="spacingAndGlyphs" textLength="91" x="737" y="195.6729">data_hora_reserva</text><text fill="#000000" font-family="sans-serif" font-size="10" lengthAdjust="spacingAndGlyphs" textLength="30" x="737" y="207.3135">status</text><text fill="#000000" font-family="sans-serif" font-size="10" lengthAdjust="spacingAndGlyphs" textLength="27" x="737" y="218.9541">prazo</text><rect fill="#FEFECE" filter="url(#f1)" height="33.9688" style="stroke: #A80036; stroke-width: 1.5;" width="40" x="127.5" y="160.5"/><text fill="#000000" font-family="sans-serif" font-size="12" lengthAdjust="spacingAndGlyphs" textLength="26" x="134.5" y="173.6387">Tela</text><line style="stroke: #A80036; stroke-width: 1.5;" x1="128.5" x2="166.5" y1="178.4688" y2="178.4688"/><rect fill="#FEFECE" filter="url(#f1)" height="37.6094" style="stroke: #A80036; stroke-width: 1.5;" width="67" x="730" y="573.5"/><text fill="#000000" font-family="sans-serif" font-size="12" lengthAdjust="spacingAndGlyphs" textLength="53" x="737" y="586.6387">Terminal</text><line style="stroke: #A80036; stroke-width: 1.5;" x1="731" x2="796" y1="591.4688" y2="591.4688"/><text fill="#000000" font-family="sans-serif" font-size="10" lengthAdjust="spacingAndGlyphs" textLength="31" x="736" y="604.751">codigo</text><polygon fill="#FBFB77" filter="url(#f1)" points="6,8,6,63.3984,187,63.3984,187,18,177,8,6,8" style="stroke: #A80036; stroke-width: 1.0;"/><line style="stroke: #A80036; stroke-width: 1.0;" x1="177" x2="177" y1="8" y2="18"/><line style="stroke: #A80036; stroke-width: 1.0;" x1="187" x2="177" y1="18" y2="18"/><text fill="#000000" font-family="sans-serif" font-size="13" lengthAdjust="spacingAndGlyphs" textLength="135" x="12" y="25.0669">Por simplificação não</text><text fill="#000000" font-family="sans-serif" font-size="13" lengthAdjust="spacingAndGlyphs" textLength="132" x="16" y="40.1997">exibimos as ligações</text><text fill="#000000" font-family="sans-serif" font-size="13" lengthAdjust="spacingAndGlyphs" textLength="156" x="16" y="55.3325">com a tela e impressora</text><path d="M126.309,837.001 C135.372,861.363 150.569,892.818 173.5,913 C234.59,966.766 327.069,992.511 386.884,1004.18 " fill="none" style="stroke: #A80036; stroke-width: 1.0;"/><text fill="#000000" font-family="sans-serif" font-size="13" lengthAdjust="spacingAndGlyphs" textLength="28" x="174.5" y="909.0669">é de</text><text fill="#000000" font-family="sans-serif" font-size="13" lengthAdjust="spacingAndGlyphs" textLength="8" x="119.4793" y="856.6823">1</text><text fill="#000000" font-family="sans-serif" font-size="13" lengthAdjust="spacingAndGlyphs" textLength="8" x="370.8613" y="999.0123">1</text><path d="M114.01,646.016 C114.369,682.969 114.839,731.44 115.155,763.935 " fill="none" style="stroke: #A80036; stroke-width: 1.0;"/><text fill="#000000" font-family="sans-serif" font-size="13" lengthAdjust="spacingAndGlyphs" textLength="28" x="116.5" y="701.0669">é de</text><text fill="#000000" font-family="sans-serif" font-size="13" lengthAdjust="spacingAndGlyphs" textLength="8" x="105.5192" y="666.6407">1</text><text fill="#000000" font-family="sans-serif" font-size="13" lengthAdjust="spacingAndGlyphs" textLength="24" x="88.8785" y="752.9329">0..n</text><path d="M399.994,1085.191 C393.947,1095.102 387.958,1105.2392 382.5,1115 C373.845,1130.4797 365.016,1148.626 358.831,1161.8055 " fill="none" style="stroke: #A80036; stroke-width: 1.0;"/><text fill="#000000" font-family="sans-serif" font-size="13" lengthAdjust="spacingAndGlyphs" textLength="53" x="383.5" y="1128.0669">publicou</text><text fill="#000000" font-family="sans-serif" font-size="13" lengthAdjust="spacingAndGlyphs" textLength="24" x="370.0637" y="1105.3604">1..n</text><text fill="#000000" font-family="sans-serif" font-size="13" lengthAdjust="spacingAndGlyphs" textLength="8" x="352.1574" y="1150.7774">1</text><path d="M458.696,231.034 C420.636,297.26 359.09,415.913 335.5,527 C304.008,675.301 367.183,848.314 410.171,942.706 " fill="none" style="stroke: #A80036; stroke-width: 1.0;"/><text fill="#000000" font-family="sans-serif" font-size="13" lengthAdjust="spacingAndGlyphs" textLength="28" x="336.5" y="597.0669">é de</text><text fill="#000000" font-family="sans-serif" font-size="13" lengthAdjust="spacingAndGlyphs" textLength="24" x="428.5361" y="251.6613">0..n</text><text fill="#000000" font-family="sans-serif" font-size="13" lengthAdjust="spacingAndGlyphs" textLength="24" x="381.5121" y="932.0047">0..n</text><path d="M482.981,231.08 C475.844,295.777 470.422,407.982 502.5,497 C508.196,512.806 516.681,512.7 525.5,527 C567.44,595.01 606.111,678.325 630.61,734.794 " fill="none" style="stroke: #A80036; stroke-width: 1.0;"/><text fill="#000000" font-family="sans-serif" font-size="13" lengthAdjust="spacingAndGlyphs" textLength="28" x="503.5" y="493.0669">é de</text><text fill="#000000" font-family="sans-serif" font-size="13" lengthAdjust="spacingAndGlyphs" textLength="24" x="456.3581" y="251.333">0..n</text><text fill="#000000" font-family="sans-serif" font-size="13" lengthAdjust="spacingAndGlyphs" textLength="24" x="602.3564" y="723.8758">0..n</text><path d="M541.519,231.072 C556.969,246.495 574.175,263.19 590.5,278 C610.18,295.853 632.42,314.613 652.417,330.999 " fill="none" style="stroke: #A80036; stroke-width: 1.0;"/><text fill="#000000" font-family="sans-serif" font-size="13" lengthAdjust="spacingAndGlyphs" textLength="109" x="591.5" y="274.0669">é cadastrada por</text><text fill="#000000" font-family="sans-serif" font-size="13" lengthAdjust="spacingAndGlyphs" textLength="24" x="523.006" y="251.7046">0..n</text><text fill="#000000" font-family="sans-serif" font-size="13" lengthAdjust="spacingAndGlyphs" textLength="24" x="620.6423" y="321.9822">0..n</text><path d="M1136.5,658.114 C1127.86,693.041 1117.51,734.839 1110.32,763.889 " fill="none" style="stroke: #A80036; stroke-width: 1.0;"/><text fill="#000000" font-family="sans-serif" font-size="13" lengthAdjust="spacingAndGlyphs" textLength="28" x="1129.5" y="701.0669">é de</text><text fill="#000000" font-family="sans-serif" font-size="13" lengthAdjust="spacingAndGlyphs" textLength="24" x="1109.6125" y="677.7413">1..n</text><text fill="#000000" font-family="sans-serif" font-size="13" lengthAdjust="spacingAndGlyphs" textLength="8" x="1103.2087" y="752.8784">1</text><path d="M1067.67,837.182 C1041.79,862.289 1003.959,894.58 964.5,913 C808.805,985.68 603.203,1005.538 504.002,1010.963 " fill="none" style="stroke: #A80036; stroke-width: 1.0;"/><text fill="#000000" font-family="sans-serif" font-size="13" lengthAdjust="spacingAndGlyphs" textLength="28" x="994.5" y="909.0669">é de</text><text fill="#000000" font-family="sans-serif" font-size="13" lengthAdjust="spacingAndGlyphs" textLength="8" x="1053.4044" y="856.6164">1</text><text fill="#000000" font-family="sans-serif" font-size="13" lengthAdjust="spacingAndGlyphs" textLength="8" x="512.0101" y="1006.6643">1</text><path d="M445.5,1085.453 C445.5,1113.4825 445.5,1143.4075 445.5,1161.9096 " fill="none" style="stroke: #A80036; stroke-width: 1.0;"/><text fill="#000000" font-family="sans-serif" font-size="13" lengthAdjust="spacingAndGlyphs" textLength="45" x="446.5" y="1128.0669">publica</text><text fill="#000000" font-family="sans-serif" font-size="13" lengthAdjust="spacingAndGlyphs" textLength="24" x="420.2625" y="1105.6494">1..n</text><text fill="#000000" font-family="sans-serif" font-size="13" lengthAdjust="spacingAndGlyphs" textLength="8" x="436.275" y="1150.9133">1</text><path d="M445.5,646.205 C445.5,721.245 445.5,859.031 445.5,942.697 " fill="none" style="stroke: #A80036; stroke-width: 1.0;"/><text fill="#000000" font-family="sans-serif" font-size="13" lengthAdjust="spacingAndGlyphs" textLength="28" x="446.5" y="805.0669">é de</text><text fill="#000000" font-family="sans-serif" font-size="13" lengthAdjust="spacingAndGlyphs" textLength="24" x="419.8875" y="666.4748">0..n</text><text fill="#000000" font-family="sans-serif" font-size="13" lengthAdjust="spacingAndGlyphs" textLength="24" x="420.3188" y="931.9948">0..n</text><path d="M466.866,646.272 C476.641,666.189 489.622,688.096 505.5,705 C536.986,738.52 582.869,764.867 615.979,781.131 " fill="none" style="stroke: #A80036; stroke-width: 1.0;"/><text fill="#000000" font-family="sans-serif" font-size="13" lengthAdjust="spacingAndGlyphs" textLength="28" x="506.5" y="701.0669">é de</text><text fill="#000000" font-family="sans-serif" font-size="13" lengthAdjust="spacingAndGlyphs" textLength="24" x="471.3496" y="666.5508">0..n</text><text fill="#000000" font-family="sans-serif" font-size="13" lengthAdjust="spacingAndGlyphs" textLength="24" x="584.1181" y="774.2808">0..n</text><path d="M652.466,415.914 C624.121,434.011 590.169,456.967 561.5,480 C539.07,498.02 515.911,519.589 496.241,538.935 " fill="none" style="stroke: #A80036; stroke-width: 1.0;"/><text fill="#000000" font-family="sans-serif" font-size="13" lengthAdjust="spacingAndGlyphs" textLength="109" x="562.5" y="493.0669">é cadastrada por</text><text fill="#000000" font-family="sans-serif" font-size="13" lengthAdjust="spacingAndGlyphs" textLength="24" x="620.6967" y="416.1848">0..n</text><text fill="#000000" font-family="sans-serif" font-size="13" lengthAdjust="spacingAndGlyphs" textLength="24" x="477.4468" y="527.7748">0..n</text><path d="M692.599,450.133 C680.609,494.624 666.052,548.638 658.899,575.177 " fill="none" style="stroke: #A80036; stroke-width: 1.0;"/><text fill="#000000" font-family="sans-serif" font-size="13" lengthAdjust="spacingAndGlyphs" textLength="56" x="683.5" y="493.0669">cadastra</text><text fill="#000000" font-family="sans-serif" font-size="13" lengthAdjust="spacingAndGlyphs" textLength="24" x="665.4123" y="470.2964">0..n</text><text fill="#000000" font-family="sans-serif" font-size="13" lengthAdjust="spacingAndGlyphs" textLength="8" x="651.0262" y="564.3577">1</text><path d="M753.773,470.214 C754.008,479.391 752.496,488.468 748.5,497 C739.666,515.861 727.502,512.553 712.5,527 C696.338,542.565 679.341,561.861 667.957,575.273 " fill="none" style="stroke: #A80036; stroke-width: 1.0;"/><polygon fill="none" points="746.805,470.95,750.758,450.132,760.65,468.871,746.805,470.95" style="stroke: #A80036; stroke-width: 1.0;"/><path d="M503.571,1085.453 C526.673,1113.4825 551.339,1143.4075 566.589,1161.9096 " fill="none" style="stroke: #A80036; stroke-width: 1.0;"/><text fill="#000000" font-family="sans-serif" font-size="13" lengthAdjust="spacingAndGlyphs" textLength="98" x="541.5" y="1128.0669">é publicado em</text><text fill="#000000" font-family="sans-serif" font-size="13" lengthAdjust="spacingAndGlyphs" textLength="24" x="484.3221" y="1105.6494">1..n</text><text fill="#000000" font-family="sans-serif" font-size="13" lengthAdjust="spacingAndGlyphs" textLength="8" x="552.7975" y="1150.9133">1</text><path d="M287.105,54.75 C264.949,80 229.5,127.97 229.5,176.5 C229.5,176.5 229.5,176.5 229.5,801.5 C229.5,889.803 322.8,953.393 386.762,986.611 " fill="none" style="stroke: #A80036; stroke-width: 1.0;"/><text fill="#000000" font-family="sans-serif" font-size="13" lengthAdjust="spacingAndGlyphs" textLength="24" x="255.2051" y="74.0763">0..n</text><text fill="#000000" font-family="sans-serif" font-size="13" lengthAdjust="spacingAndGlyphs" textLength="24" x="355.025" y="979.8487">0..n</text><path d="M340.627,39.23 C492.264,51.14 1069.5,101.44 1069.5,176.5 C1069.5,176.5 1069.5,176.5 1069.5,593.5 C1069.5,757.839 804.014,791.08 699.272,797.799 " fill="none" style="stroke: #A80036; stroke-width: 1.0;"/><text fill="#000000" font-family="sans-serif" font-size="13" lengthAdjust="spacingAndGlyphs" textLength="24" x="348.598" y="35.7158">0..n</text><text fill="#000000" font-family="sans-serif" font-size="13" lengthAdjust="spacingAndGlyphs" textLength="24" x="706.8337" y="793.4594">0..n</text><path d="M306.681,54.55 C311.754,94.95 325.459,195.56 345.5,278 C368.171,371.26 404.153,477.13 426.211,538.895 " fill="none" style="stroke: #A80036; stroke-width: 1.0;"/><text fill="#000000" font-family="sans-serif" font-size="13" lengthAdjust="spacingAndGlyphs" textLength="24" x="310.6694" y="74.1577">0..n</text><text fill="#000000" font-family="sans-serif" font-size="13" lengthAdjust="spacingAndGlyphs" textLength="24" x="398.2021" y="528.1123">0..n</text><path d="M340.82,47.14 C424.917,71.77 633.251,132.79 730.698,161.33 " fill="none" style="stroke: #A80036; stroke-width: 1.0;"/><text fill="#000000" font-family="sans-serif" font-size="13" lengthAdjust="spacingAndGlyphs" textLength="24" x="348.521" y="62.299">0..n</text><text fill="#000000" font-family="sans-serif" font-size="13" lengthAdjust="spacingAndGlyphs" textLength="24" x="698.9221" y="155.5316">0..n</text><path d="M834.013,213.621 C879.452,249.198 938.5,308.752 938.5,378 C938.5,378 938.5,378 938.5,801.5 C938.5,988.467 635.336,1012.262 504.478,1013.824 " fill="none" style="stroke: #A80036; stroke-width: 1.0;"/><text fill="#000000" font-family="sans-serif" font-size="13" lengthAdjust="spacingAndGlyphs" textLength="76" x="939.5" y="597.0669">é reservado</text><text fill="#000000" font-family="sans-serif" font-size="13" lengthAdjust="spacingAndGlyphs" textLength="24" x="842.1506" y="214.3744">0..n</text><text fill="#000000" font-family="sans-serif" font-size="13" lengthAdjust="spacingAndGlyphs" textLength="8" x="512.1534" y="1026.7687">1</text><path d="M814.094,225.614 C820.036,236.766 825.364,248.938 828.5,261 C830.401,268.313 828.639,270.446 828.5,278 C825.388,446.975 848.289,492.409 814.5,658 C810.028,679.917 810.386,687.463 796.5,705 C770.415,737.943 729.695,763.726 699.058,779.98 " fill="none" style="stroke: #A80036; stroke-width: 1.0;"/><text fill="#000000" font-family="sans-serif" font-size="13" lengthAdjust="spacingAndGlyphs" textLength="48" x="833.5" y="493.0669">reserva</text><text fill="#000000" font-family="sans-serif" font-size="13" lengthAdjust="spacingAndGlyphs" textLength="24" x="792.8494" y="245.5241">0..n</text><text fill="#000000" font-family="sans-serif" font-size="13" lengthAdjust="spacingAndGlyphs" textLength="8" x="706.8883" y="772.2652">1</text><path d="M734.859,225.691 C726.601,236.478 719.176,248.481 714.5,261 C709.025,275.657 706.572,292.081 705.819,307.884 " fill="none" style="stroke: #A80036; stroke-width: 1.0;"/><text fill="#000000" font-family="sans-serif" font-size="13" lengthAdjust="spacingAndGlyphs" textLength="108" x="715.5" y="274.0669">cadastra reserva</text><text fill="#000000" font-family="sans-serif" font-size="13" lengthAdjust="spacingAndGlyphs" textLength="24" x="702.8447" y="245.2629">0..n</text><text fill="#000000" font-family="sans-serif" font-size="13" lengthAdjust="spacingAndGlyphs" textLength="8" x="696.8206" y="296.8311">1</text><path d="M754.093,611.781 C740.007,639.155 712.741,692.145 690.76,734.863 " fill="none" style="stroke: #A80036; stroke-width: 1.0;"/><text fill="#000000" font-family="sans-serif" font-size="13" lengthAdjust="spacingAndGlyphs" textLength="73" x="714.5" y="701.0669">é acessado</text><text fill="#000000" font-family="sans-serif" font-size="13" lengthAdjust="spacingAndGlyphs" textLength="8" x="742.4899" y="631.1156">1</text><text fill="#000000" font-family="sans-serif" font-size="13" lengthAdjust="spacingAndGlyphs" textLength="24" x="669.0853" y="723.9523">0..n</text><path d="M615.869,843.033 C584.034,874.793 539.733,918.989 504.285,954.353 " fill="none" style="stroke: #A80036; stroke-width: 1.0;"/><text fill="#000000" font-family="sans-serif" font-size="13" lengthAdjust="spacingAndGlyphs" textLength="54" x="558.5" y="909.0669">consulta</text><text fill="#000000" font-family="sans-serif" font-size="13" lengthAdjust="spacingAndGlyphs" textLength="8" x="600.0262" y="846.1554">1</text><text fill="#000000" font-family="sans-serif" font-size="13" lengthAdjust="spacingAndGlyphs" textLength="24" x="512.0271" y="944.0624">0..n</text><path d="M106.213,63.16 C116.675,91.88 132.982,136.65 141.639,160.41 " fill="none" style="stroke: #A80036; stroke-width: 1.0;"/><path d="M87.7395,63.16 C78.3031,91.88 63.5946,136.65 55.7863,160.41 " fill="none" style="stroke: #A80036; stroke-width: 1.0;"/></g></svg>